<svg width="32" height="32" viewBox="0 0 32 32" fill="none" xmlns="http://www.w3.org/2000/svg">
<path d="M32 25V27C32 27.2652 31.8946 27.5196 31.7071 27.7071C31.5196 27.8946 31.2652 28 31 28H2C1.46957 28 0.960859 27.7893 0.585786 27.4142C0.210714 27.0391 0 26.5304 0 26V5C0 4.73478 0.105357 4.48043 0.292893 4.29289C0.48043 4.10536 0.734784 4 1 4H3C3.26522 4 3.51957 4.10536 3.70711 4.29289C3.89464 4.48043 4 4.73478 4 5V24H31C31.2652 24 31.5196 24.1054 31.7071 24.2929C31.8946 24.4804 32 24.7348 32 25Z" fill="#19C1CE"/>
<path d="M29.9998 7V14.3781C29.9998 15.7144 28.3842 16.3837 27.4373 15.4406L25.4123 13.4156L19.4123 19.4156C19.0373 19.7906 18.5286 20.0013 17.9983 20.0013C17.4679 20.0013 16.9593 19.7906 16.5842 19.4156L11.9998 14.8281L9.1211 17.7075C9.02824 17.8004 8.91799 17.8741 8.79665 17.9243C8.67531 17.9746 8.54525 18.0005 8.41391 18.0005C8.28257 18.0005 8.15252 17.9746 8.03118 17.9243C7.90983 17.8741 7.79959 17.8004 7.70672 17.7075L6.29297 16.2938C6.20009 16.2009 6.12641 16.0906 6.07614 15.9693C6.02587 15.848 6 15.7179 6 15.5866C6 15.4552 6.02587 15.3252 6.07614 15.2038C6.12641 15.0825 6.20009 14.9722 6.29297 14.8794L10.5861 10.5863C10.9612 10.2113 11.4698 10.0006 12.0002 10.0006C12.5305 10.0006 13.0392 10.2113 13.4142 10.5863L17.9998 15.1719L22.5855 10.5856L20.5623 8.5625C19.6173 7.6175 20.2867 6 21.6248 6H28.9998C29.2651 6 29.5194 6.10536 29.707 6.29289C29.8945 6.48043 29.9998 6.73478 29.9998 7Z" fill="#19C1CE"/>
</svg>
