<svg width="271" height="40" viewBox="0 0 271 40" fill="none" xmlns="http://www.w3.org/2000/svg">
<path d="M24.9152 23L23.9772 20.816H19.3852L18.4472 23H16.2492L20.7852 13.13H22.5352L27.0712 23H24.9152ZM20.0992 19.164H23.2632L21.6812 15.468L20.0992 19.164ZM31.7782 23.126C31.0315 23.126 30.3128 23.028 29.6222 22.832C28.9315 22.6267 28.3575 22.3467 27.9002 21.992L28.6002 20.438C29.5522 21.1007 30.6208 21.432 31.8062 21.432C32.4222 21.432 32.8935 21.334 33.2202 21.138C33.5562 20.9327 33.7242 20.6527 33.7242 20.298C33.7242 19.9807 33.5702 19.7333 33.2622 19.556C32.9635 19.3787 32.4268 19.206 31.6522 19.038C30.7842 18.8607 30.0888 18.646 29.5662 18.394C29.0528 18.142 28.6748 17.834 28.4322 17.47C28.1988 17.0967 28.0822 16.6393 28.0822 16.098C28.0822 15.5007 28.2455 14.9687 28.5722 14.502C28.9082 14.0353 29.3748 13.6713 29.9722 13.41C30.5695 13.1393 31.2602 13.004 32.0442 13.004C32.7442 13.004 33.4162 13.1067 34.0602 13.312C34.7135 13.5173 35.2315 13.7927 35.6142 14.138L34.9142 15.692C34.0088 15.0293 33.0568 14.698 32.0582 14.698C31.4888 14.698 31.0408 14.81 30.7142 15.034C30.3875 15.2487 30.2242 15.5473 30.2242 15.93C30.2242 16.154 30.2848 16.3407 30.4062 16.49C30.5368 16.63 30.7468 16.756 31.0362 16.868C31.3348 16.98 31.7548 17.0967 32.2962 17.218C33.5655 17.498 34.4755 17.8573 35.0262 18.296C35.5862 18.7347 35.8662 19.3413 35.8662 20.116C35.8662 21.0493 35.5068 21.7867 34.7882 22.328C34.0695 22.86 33.0662 23.126 31.7782 23.126ZM41.4573 23.126C40.7106 23.126 39.992 23.028 39.3013 22.832C38.6106 22.6267 38.0366 22.3467 37.5793 21.992L38.2793 20.438C39.2313 21.1007 40.3 21.432 41.4853 21.432C42.1013 21.432 42.5726 21.334 42.8993 21.138C43.2353 20.9327 43.4033 20.6527 43.4033 20.298C43.4033 19.9807 43.2493 19.7333 42.9413 19.556C42.6426 19.3787 42.106 19.206 41.3313 19.038C40.4633 18.8607 39.768 18.646 39.2453 18.394C38.732 18.142 38.354 17.834 38.1113 17.47C37.878 17.0967 37.7613 16.6393 37.7613 16.098C37.7613 15.5007 37.9246 14.9687 38.2513 14.502C38.5873 14.0353 39.054 13.6713 39.6513 13.41C40.2486 13.1393 40.9393 13.004 41.7233 13.004C42.4233 13.004 43.0953 13.1067 43.7393 13.312C44.3926 13.5173 44.9106 13.7927 45.2933 14.138L44.5933 15.692C43.688 15.0293 42.736 14.698 41.7373 14.698C41.168 14.698 40.72 14.81 40.3933 15.034C40.0666 15.2487 39.9033 15.5473 39.9033 15.93C39.9033 16.154 39.964 16.3407 40.0853 16.49C40.216 16.63 40.426 16.756 40.7153 16.868C41.014 16.98 41.434 17.0967 41.9753 17.218C43.2446 17.498 44.1546 17.8573 44.7053 18.296C45.2653 18.7347 45.5453 19.3413 45.5453 20.116C45.5453 21.0493 45.186 21.7867 44.4673 22.328C43.7486 22.86 42.7453 23.126 41.4573 23.126ZM47.6784 23V13.13H49.8624V23H47.6784ZM55.839 23.126C55.0924 23.126 54.3737 23.028 53.683 22.832C52.9924 22.6267 52.4184 22.3467 51.961 21.992L52.661 20.438C53.613 21.1007 54.6817 21.432 55.867 21.432C56.483 21.432 56.9544 21.334 57.281 21.138C57.617 20.9327 57.785 20.6527 57.785 20.298C57.785 19.9807 57.631 19.7333 57.323 19.556C57.0244 19.3787 56.4877 19.206 55.713 19.038C54.845 18.8607 54.1497 18.646 53.627 18.394C53.1137 18.142 52.7357 17.834 52.493 17.47C52.2597 17.0967 52.143 16.6393 52.143 16.098C52.143 15.5007 52.3064 14.9687 52.633 14.502C52.969 14.0353 53.4357 13.6713 54.033 13.41C54.6304 13.1393 55.321 13.004 56.105 13.004C56.805 13.004 57.477 13.1067 58.121 13.312C58.7744 13.5173 59.2924 13.7927 59.675 14.138L58.975 15.692C58.0697 15.0293 57.1177 14.698 56.119 14.698C55.5497 14.698 55.1017 14.81 54.775 15.034C54.4484 15.2487 54.285 15.5473 54.285 15.93C54.285 16.154 54.3457 16.3407 54.467 16.49C54.5977 16.63 54.8077 16.756 55.097 16.868C55.3957 16.98 55.8157 17.0967 56.357 17.218C57.6264 17.498 58.5364 17.8573 59.087 18.296C59.647 18.7347 59.927 19.3413 59.927 20.116C59.927 21.0493 59.5677 21.7867 58.849 22.328C58.1304 22.86 57.127 23.126 55.839 23.126ZM64.1371 23V14.908H61.0431V13.13H69.4151V14.908H66.3211V23H64.1371ZM77.3983 23L76.4603 20.816H71.8683L70.9303 23H68.7323L73.2683 13.13H75.0183L79.5543 23H77.3983ZM72.5823 19.164H75.7463L74.1643 15.468L72.5823 19.164ZM92.9421 23L92.0041 20.816H87.4121L86.4741 23H84.2761L88.8121 13.13H90.5621L95.0981 23H92.9421ZM88.1261 19.164H91.2901L89.7081 15.468L88.1261 19.164ZM100.954 13.13H104.79C105.863 13.13 106.787 13.326 107.562 13.718C108.337 14.11 108.929 14.6747 109.34 15.412C109.751 16.1493 109.956 17.0313 109.956 18.058C109.956 19.0847 109.751 19.9713 109.34 20.718C108.939 21.4553 108.351 22.02 107.576 22.412C106.801 22.804 105.873 23 104.79 23H100.954V13.13ZM104.636 21.236C106.736 21.236 107.786 20.1767 107.786 18.058C107.786 15.9487 106.736 14.894 104.636 14.894H103.138V21.236H104.636ZM112.192 23V13.13H118.996V14.824H114.32V17.134H118.716V18.828H114.32V21.306H118.996V23H112.192ZM129.156 13.13H130.85V23H128.932V17.148L126.664 21.376H125.264L122.996 17.204V23H121.078V13.13H122.8L125.978 19.164L129.156 13.13ZM137.932 23.126C136.952 23.126 136.098 22.9207 135.37 22.51C134.651 22.09 134.096 21.502 133.704 20.746C133.312 19.9807 133.116 19.0847 133.116 18.058C133.116 17.0313 133.312 16.14 133.704 15.384C134.096 14.6187 134.651 14.0307 135.37 13.62C136.098 13.2093 136.952 13.004 137.932 13.004C138.912 13.004 139.761 13.2093 140.48 13.62C141.208 14.0307 141.768 14.6187 142.16 15.384C142.552 16.14 142.748 17.0313 142.748 18.058C142.748 19.0847 142.552 19.9807 142.16 20.746C141.768 21.502 141.208 22.09 140.48 22.51C139.761 22.9207 138.912 23.126 137.932 23.126ZM137.932 21.432C138.753 21.432 139.397 21.1427 139.864 20.564C140.34 19.9853 140.578 19.15 140.578 18.058C140.578 16.966 140.344 16.1353 139.878 15.566C139.411 14.9873 138.762 14.698 137.932 14.698C137.101 14.698 136.452 14.9873 135.986 15.566C135.528 16.1353 135.3 16.966 135.3 18.058C135.3 19.15 135.533 19.9853 136 20.564C136.466 21.1427 137.11 21.432 137.932 21.432ZM151.499 13.13H153.543V23H151.919L147.005 16.714V23H144.975V13.13H146.585L151.499 19.388V13.13ZM159.52 23.126C158.774 23.126 158.055 23.028 157.364 22.832C156.674 22.6267 156.1 22.3467 155.642 21.992L156.342 20.438C157.294 21.1007 158.363 21.432 159.548 21.432C160.164 21.432 160.636 21.334 160.962 21.138C161.298 20.9327 161.466 20.6527 161.466 20.298C161.466 19.9807 161.312 19.7333 161.004 19.556C160.706 19.3787 160.169 19.206 159.394 19.038C158.526 18.8607 157.831 18.646 157.308 18.394C156.795 18.142 156.417 17.834 156.174 17.47C155.941 17.0967 155.824 16.6393 155.824 16.098C155.824 15.5007 155.988 14.9687 156.314 14.502C156.65 14.0353 157.117 13.6713 157.714 13.41C158.312 13.1393 159.002 13.004 159.786 13.004C160.486 13.004 161.158 13.1067 161.802 13.312C162.456 13.5173 162.974 13.7927 163.356 14.138L162.656 15.692C161.751 15.0293 160.799 14.698 159.8 14.698C159.231 14.698 158.783 14.81 158.456 15.034C158.13 15.2487 157.966 15.5473 157.966 15.93C157.966 16.154 158.027 16.3407 158.148 16.49C158.279 16.63 158.489 16.756 158.778 16.868C159.077 16.98 159.497 17.0967 160.038 17.218C161.308 17.498 162.218 17.8573 162.768 18.296C163.328 18.7347 163.608 19.3413 163.608 20.116C163.608 21.0493 163.249 21.7867 162.53 22.328C161.812 22.86 160.808 23.126 159.52 23.126ZM167.819 23V14.908H164.725V13.13H173.097V14.908H170.003V23H167.819ZM183.374 23H180.994L179.286 19.85C179.146 19.6073 178.978 19.4347 178.782 19.332C178.586 19.22 178.338 19.164 178.04 19.164H176.962V23H174.806V13.13H179.342C180.499 13.13 181.372 13.3867 181.96 13.9C182.557 14.404 182.856 15.1367 182.856 16.098C182.856 16.8447 182.646 17.47 182.226 17.974C181.815 18.478 181.232 18.8093 180.476 18.968C180.989 19.0987 181.423 19.4673 181.778 20.074L183.374 23ZM179.02 17.512C179.645 17.512 180.098 17.4047 180.378 17.19C180.658 16.966 180.798 16.6207 180.798 16.154C180.798 15.678 180.658 15.3327 180.378 15.118C180.098 14.9033 179.645 14.796 179.02 14.796H176.934V17.512H179.02ZM192.577 23L191.639 20.816H187.047L186.109 23H183.911L188.447 13.13H190.197L194.733 23H192.577ZM187.761 19.164H190.925L189.343 15.468L187.761 19.164ZM203.825 21.992C203.471 22.3187 203.023 22.58 202.481 22.776C201.949 22.972 201.385 23.084 200.787 23.112L200.731 23.574C200.769 23.5647 200.825 23.56 200.899 23.56C201.254 23.56 201.539 23.644 201.753 23.812C201.968 23.9893 202.075 24.2273 202.075 24.526C202.075 24.89 201.912 25.184 201.585 25.408C201.259 25.6413 200.792 25.758 200.185 25.758C199.98 25.758 199.756 25.7347 199.513 25.688C199.271 25.6507 199.056 25.59 198.869 25.506L199.037 24.694C199.457 24.8247 199.821 24.89 200.129 24.89C200.559 24.89 200.773 24.7687 200.773 24.526C200.773 24.3487 200.624 24.26 200.325 24.26C200.157 24.26 199.989 24.288 199.821 24.344L199.541 24.05L199.667 23.07C198.818 22.9673 198.085 22.6967 197.469 22.258C196.853 21.81 196.382 21.2267 196.055 20.508C195.729 19.7893 195.565 18.9727 195.565 18.058C195.565 17.05 195.761 16.1633 196.153 15.398C196.555 14.6327 197.124 14.0447 197.861 13.634C198.608 13.214 199.481 13.004 200.479 13.004C201.133 13.004 201.758 13.1067 202.355 13.312C202.953 13.508 203.443 13.7833 203.825 14.138L203.125 15.692C202.696 15.3653 202.267 15.1273 201.837 14.978C201.417 14.8287 200.979 14.754 200.521 14.754C199.644 14.754 198.967 15.034 198.491 15.594C198.025 16.154 197.791 16.9753 197.791 18.058C197.791 19.1407 198.025 19.9667 198.491 20.536C198.967 21.096 199.644 21.376 200.521 21.376C200.979 21.376 201.417 21.3013 201.837 21.152C202.267 21.0027 202.696 20.7647 203.125 20.438L203.825 21.992ZM213.289 23L212.351 20.816H207.759L206.821 23H204.623L209.159 13.13H210.909L215.445 23H213.289ZM208.473 19.164H211.637L210.055 15.468L208.473 19.164ZM207.591 12.192C207.591 11.52 207.731 11.0113 208.011 10.666C208.3 10.3207 208.669 10.148 209.117 10.148C209.285 10.148 209.444 10.1807 209.593 10.246C209.752 10.3113 209.948 10.414 210.181 10.554C210.358 10.666 210.503 10.75 210.615 10.806C210.736 10.862 210.853 10.89 210.965 10.89C211.142 10.89 211.278 10.8293 211.371 10.708C211.474 10.5773 211.534 10.4047 211.553 10.19H212.463C212.463 10.862 212.318 11.3707 212.029 11.716C211.749 12.0613 211.385 12.234 210.937 12.234C210.769 12.234 210.606 12.2013 210.447 12.136C210.298 12.0707 210.106 11.968 209.873 11.828C209.686 11.716 209.537 11.6367 209.425 11.59C209.313 11.534 209.201 11.506 209.089 11.506C208.912 11.506 208.772 11.5667 208.669 11.688C208.576 11.8093 208.52 11.9773 208.501 12.192H207.591ZM221.093 23.126C220.113 23.126 219.259 22.9207 218.531 22.51C217.813 22.09 217.257 21.502 216.865 20.746C216.473 19.9807 216.277 19.0847 216.277 18.058C216.277 17.0313 216.473 16.14 216.865 15.384C217.257 14.6187 217.813 14.0307 218.531 13.62C219.259 13.2093 220.113 13.004 221.093 13.004C222.073 13.004 222.923 13.2093 223.641 13.62C224.369 14.0307 224.929 14.6187 225.321 15.384C225.713 16.14 225.909 17.0313 225.909 18.058C225.909 19.0847 225.713 19.9807 225.321 20.746C224.929 21.502 224.369 22.09 223.641 22.51C222.923 22.9207 222.073 23.126 221.093 23.126ZM221.093 21.432C221.915 21.432 222.559 21.1427 223.025 20.564C223.501 19.9853 223.739 19.15 223.739 18.058C223.739 16.966 223.506 16.1353 223.039 15.566C222.573 14.9873 221.924 14.698 221.093 14.698C220.263 14.698 219.614 14.9873 219.147 15.566C218.69 16.1353 218.461 16.966 218.461 18.058C218.461 19.15 218.695 19.9853 219.161 20.564C219.628 21.1427 220.272 21.432 221.093 21.432Z" fill="#212429"/>
<path d="M245 10.5C240.857 10.5 237.5 13.8569 237.5 18C237.5 22.1431 240.857 25.5 245 25.5C249.143 25.5 252.5 22.1431 252.5 18C252.5 13.8569 249.143 10.5 245 10.5ZM248.902 18.7258L243.58 21.7802C243.102 22.0464 242.5 21.7046 242.5 21.1452C242.5 18.6886 242.5 17.3114 242.5 14.8548C242.5 14.2984 243.099 13.9536 243.58 14.2198C245.658 15.4835 246.824 16.192 248.902 17.4556C249.398 17.7339 249.398 18.4506 248.902 18.7258Z" fill="#212429"/>
<rect x="1" y="1" width="269" height="34" stroke="#212429" stroke-width="2"/>
<path d="M0 36H271L250.053 40H20.9469L0 36Z" fill="#212429"/>
</svg>
