<svg width="94" height="40" viewBox="0 0 94 40" fill="none" xmlns="http://www.w3.org/2000/svg">
<path d="M23.7189 17.89C24.2882 18.058 24.7269 18.352 25.0349 18.772C25.3522 19.1827 25.5109 19.6913 25.5109 20.298C25.5109 21.1287 25.2029 21.7867 24.5869 22.272C23.9802 22.7573 23.1402 23 22.0669 23H17.3769V13.13H21.9269C22.9535 13.13 23.7655 13.3587 24.3629 13.816C24.9695 14.2733 25.2729 14.8987 25.2729 15.692C25.2729 16.2053 25.1329 16.658 24.8529 17.05C24.5822 17.4327 24.2042 17.7127 23.7189 17.89ZM19.5049 17.148H21.5629C22.1229 17.148 22.5335 17.0547 22.7949 16.868C23.0655 16.672 23.2009 16.378 23.2009 15.986C23.2009 15.5753 23.0655 15.2767 22.7949 15.09C22.5335 14.894 22.1229 14.796 21.5629 14.796H19.5049V17.148ZM21.8149 21.334C22.3935 21.334 22.8135 21.236 23.0749 21.04C23.3362 20.844 23.4669 20.5267 23.4669 20.088C23.4669 19.6493 23.3362 19.3273 23.0749 19.122C22.8135 18.9167 22.3935 18.814 21.8149 18.814H19.5049V21.334H21.8149ZM31.7752 23.126C30.3939 23.126 29.3392 22.7713 28.6112 22.062C27.8926 21.3433 27.5332 20.298 27.5332 18.926V13.13H29.6752V19.024C29.6752 19.808 29.8526 20.4053 30.2072 20.816C30.5712 21.2267 31.0939 21.432 31.7752 21.432C32.4566 21.432 32.9792 21.2267 33.3432 20.816C33.7072 20.396 33.8892 19.7987 33.8892 19.024V13.13H36.0312V18.926C36.0312 20.2887 35.6672 21.3293 34.9392 22.048C34.2112 22.7667 33.1566 23.126 31.7752 23.126ZM40.7808 23V14.908H37.6868V13.13H46.0588V14.908H42.9648V23H40.7808ZM50.0498 23V14.908H46.9558V13.13H55.3278V14.908H52.2338V23H50.0498ZM61.0123 23.126C60.0323 23.126 59.1783 22.9207 58.4503 22.51C57.7316 22.09 57.1763 21.502 56.7843 20.746C56.3923 19.9807 56.1963 19.0847 56.1963 18.058C56.1963 17.0313 56.3923 16.14 56.7843 15.384C57.1763 14.6187 57.7316 14.0307 58.4503 13.62C59.1783 13.2093 60.0323 13.004 61.0123 13.004C61.9923 13.004 62.8416 13.2093 63.5603 13.62C64.2883 14.0307 64.8483 14.6187 65.2403 15.384C65.6323 16.14 65.8283 17.0313 65.8283 18.058C65.8283 19.0847 65.6323 19.9807 65.2403 20.746C64.8483 21.502 64.2883 22.09 63.5603 22.51C62.8416 22.9207 61.9923 23.126 61.0123 23.126ZM61.0123 21.432C61.8336 21.432 62.4776 21.1427 62.9443 20.564C63.4203 19.9853 63.6583 19.15 63.6583 18.058C63.6583 16.966 63.4249 16.1353 62.9583 15.566C62.4916 14.9873 61.8429 14.698 61.0123 14.698C60.1816 14.698 59.5329 14.9873 59.0663 15.566C58.6089 16.1353 58.3803 16.966 58.3803 18.058C58.3803 19.15 58.6136 19.9853 59.0803 20.564C59.5469 21.1427 60.1909 21.432 61.0123 21.432ZM74.5798 13.13H76.6238V23H74.9998L70.0858 16.714V23H68.0558V13.13H69.6658L74.5798 19.388V13.13Z" fill="#212429"/>
<rect x="1" y="1" width="92" height="34" stroke="#212429" stroke-width="2"/>
<path d="M0 36H94L86.7343 40H7.2657L0 36Z" fill="#212429"/>
</svg>
