<svg width="448" height="44" viewBox="0 0 448 44" fill="none" xmlns="http://www.w3.org/2000/svg">
<rect width="448" height="40" fill="#F2BF4E"/>
<path d="M140.632 25.144C139.491 25.144 138.493 24.904 137.64 24.424C136.797 23.944 136.147 23.2667 135.688 22.392C135.24 21.5173 135.016 20.504 135.016 19.352C135.016 18.2 135.24 17.1867 135.688 16.312C136.147 15.4373 136.797 14.7653 137.64 14.296C138.493 13.816 139.491 13.576 140.632 13.576C141.379 13.576 142.093 13.6933 142.776 13.928C143.459 14.152 144.019 14.4667 144.456 14.872L143.656 16.648C143.165 16.2747 142.675 16.0027 142.184 15.832C141.704 15.6613 141.203 15.576 140.68 15.576C139.677 15.576 138.904 15.896 138.36 16.536C137.827 17.176 137.56 18.1147 137.56 19.352C137.56 20.5893 137.827 21.5333 138.36 22.184C138.904 22.824 139.677 23.144 140.68 23.144C141.203 23.144 141.704 23.0587 142.184 22.888C142.675 22.7173 143.165 22.4453 143.656 22.072L144.456 23.848C144.019 24.2533 143.459 24.5733 142.776 24.808C142.093 25.032 141.379 25.144 140.632 25.144ZM156.612 25H153.892L151.94 21.4C151.78 21.1227 151.588 20.9253 151.364 20.808C151.14 20.68 150.857 20.616 150.516 20.616H149.284V25H146.82V13.72H152.004C153.326 13.72 154.324 14.0133 154.996 14.6C155.678 15.176 156.02 16.0133 156.02 17.112C156.02 17.9653 155.78 18.68 155.3 19.256C154.83 19.832 154.164 20.2107 153.3 20.392C153.886 20.5413 154.382 20.9627 154.788 21.656L156.612 25ZM151.636 18.728C152.35 18.728 152.868 18.6053 153.188 18.36C153.508 18.104 153.668 17.7093 153.668 17.176C153.668 16.632 153.508 16.2373 153.188 15.992C152.868 15.7467 152.35 15.624 151.636 15.624H149.252V18.728H151.636ZM158.678 25V13.72H161.174V25H158.678ZM172.661 25L171.589 22.504H166.341L165.269 25H162.757L167.941 13.72H169.941L175.125 25H172.661ZM167.157 20.616H170.773L168.965 16.392L167.157 20.616ZM186.5 25H183.78L181.828 21.4C181.668 21.1227 181.476 20.9253 181.252 20.808C181.028 20.68 180.746 20.616 180.404 20.616H179.172V25H176.708V13.72H181.892C183.215 13.72 184.212 14.0133 184.884 14.6C185.567 15.176 185.908 16.0133 185.908 17.112C185.908 17.9653 185.668 18.68 185.188 19.256C184.719 19.832 184.052 20.2107 183.188 20.392C183.775 20.5413 184.271 20.9627 184.676 21.656L186.5 25ZM181.524 18.728C182.239 18.728 182.756 18.6053 183.076 18.36C183.396 18.104 183.556 17.7093 183.556 17.176C183.556 16.632 183.396 16.2373 183.076 15.992C182.756 15.7467 182.239 15.624 181.524 15.624H179.14V18.728H181.524ZM202.94 13.72H204.876V25H202.684V18.312L200.092 23.144H198.492L195.9 18.376V25H193.708V13.72H195.676L199.308 20.616L202.94 13.72ZM207.785 25V13.72H210.281V25H207.785ZM220.615 13.72H222.951V25H221.095L215.479 17.816V25H213.159V13.72H214.999L220.615 20.872V13.72ZM233.478 13.72H235.926V25H233.478V20.264H228.278V25H225.83V13.72H228.278V18.28H233.478V13.72ZM247.422 25L246.35 22.504H241.102L240.03 25H237.518L242.702 13.72H244.702L249.886 25H247.422ZM241.918 20.616H245.534L243.726 16.392L241.918 20.616ZM261.874 25.144C260.733 25.144 259.736 24.904 258.882 24.424C258.04 23.944 257.389 23.2667 256.93 22.392C256.482 21.5173 256.258 20.504 256.258 19.352C256.258 18.2 256.482 17.1867 256.93 16.312C257.389 15.4373 258.04 14.7653 258.882 14.296C259.736 13.816 260.733 13.576 261.874 13.576C262.621 13.576 263.336 13.6933 264.018 13.928C264.701 14.152 265.261 14.4667 265.698 14.872L264.898 16.648C264.408 16.2747 263.917 16.0027 263.426 15.832C262.946 15.6613 262.445 15.576 261.922 15.576C260.92 15.576 260.146 15.896 259.602 16.536C259.069 17.176 258.802 18.1147 258.802 19.352C258.802 20.5893 259.069 21.5333 259.602 22.184C260.146 22.824 260.92 23.144 261.922 23.144C262.445 23.144 262.946 23.0587 263.426 22.888C263.917 22.7173 264.408 22.4453 264.898 22.072L265.698 23.848C265.261 24.2533 264.701 24.5733 264.018 24.808C263.336 25.032 262.621 25.144 261.874 25.144ZM273.012 25.144C271.892 25.144 270.916 24.9093 270.084 24.44C269.262 23.96 268.628 23.288 268.18 22.424C267.732 21.5493 267.508 20.5253 267.508 19.352C267.508 18.1787 267.732 17.16 268.18 16.296C268.628 15.4213 269.262 14.7493 270.084 14.28C270.916 13.8107 271.892 13.576 273.012 13.576C274.132 13.576 275.102 13.8107 275.924 14.28C276.756 14.7493 277.396 15.4213 277.844 16.296C278.292 17.16 278.516 18.1787 278.516 19.352C278.516 20.5253 278.292 21.5493 277.844 22.424C277.396 23.288 276.756 23.96 275.924 24.44C275.102 24.9093 274.132 25.144 273.012 25.144ZM273.012 23.208C273.95 23.208 274.686 22.8773 275.22 22.216C275.764 21.5547 276.036 20.6 276.036 19.352C276.036 18.104 275.769 17.1547 275.236 16.504C274.702 15.8427 273.961 15.512 273.012 15.512C272.062 15.512 271.321 15.8427 270.788 16.504C270.265 17.1547 270.004 18.104 270.004 19.352C270.004 20.6 270.27 21.5547 270.804 22.216C271.337 22.8773 272.073 23.208 273.012 23.208ZM288.518 13.72H290.854V25H288.998L283.382 17.816V25H281.062V13.72H282.902L288.518 20.872V13.72ZM296.341 25V15.752H292.805V13.72H302.373V15.752H298.837V25H296.341ZM311.496 25L310.424 22.504H305.176L304.104 25H301.592L306.776 13.72H308.776L313.96 25H311.496ZM305.992 20.616H309.608L307.8 16.392L305.992 20.616Z" fill="#212429"/>
<path d="M0 40H448L413.372 44H34.628L0 40Z" fill="#212429"/>
</svg>
