<svg width="257" height="44" viewBox="0 0 257 44" fill="none" xmlns="http://www.w3.org/2000/svg">
<rect width="257" height="40" fill="#19C1CE"/>
<path d="M30.8796 25.176C29.6636 25.176 28.6236 24.936 27.7596 24.456C26.8956 23.976 26.2289 23.304 25.7596 22.44C25.3009 21.5653 25.0716 20.536 25.0716 19.352C25.0716 18.1787 25.3009 17.16 25.7596 16.296C26.2289 15.4213 26.8956 14.744 27.7596 14.264C28.6236 13.784 29.6636 13.544 30.8796 13.544C31.6262 13.544 32.3409 13.6613 33.0236 13.896C33.7062 14.1307 34.2662 14.4507 34.7036 14.856L33.9356 16.824C33.4556 16.4507 32.9702 16.1787 32.4796 16.008C31.9996 15.8267 31.4929 15.736 30.9596 15.736C29.8822 15.736 29.0662 16.0507 28.5116 16.68C27.9676 17.2987 27.6956 18.1893 27.6956 19.352C27.6956 20.5147 27.9676 21.4107 28.5116 22.04C29.0662 22.6693 29.8822 22.984 30.9596 22.984C31.4929 22.984 31.9996 22.8987 32.4796 22.728C32.9702 22.5467 33.4556 22.2693 33.9356 21.896L34.7036 23.864C34.2662 24.2587 33.7062 24.5787 33.0236 24.824C32.3409 25.0587 31.6262 25.176 30.8796 25.176ZM36.9694 25V13.72H42.1214C43.3801 13.72 44.3508 14.024 45.0334 14.632C45.7161 15.24 46.0574 16.088 46.0574 17.176C46.0574 18.0187 45.8388 18.7227 45.4014 19.288C44.9748 19.8427 44.3614 20.2213 43.5614 20.424C44.1268 20.5947 44.5908 21.0053 44.9534 21.656L46.7774 25H44.0414L42.0894 21.4C41.9294 21.112 41.7321 20.9147 41.4974 20.808C41.2628 20.6907 40.9854 20.632 40.6654 20.632H39.4494V25H36.9694ZM39.4494 18.84H41.6734C43.0068 18.84 43.6734 18.3067 43.6734 17.24C43.6734 16.184 43.0068 15.656 41.6734 15.656H39.4494V18.84ZM48.7501 25V13.72H51.2301V25H48.7501ZM52.8284 25L58.0124 13.72H60.0124L65.1964 25H62.7004L61.6444 22.552H56.3804L55.3404 25H52.8284ZM58.9884 16.36L57.2124 20.616H60.8284L59.0204 16.36H58.9884ZM66.8113 25V13.72H71.9633C73.222 13.72 74.1926 14.024 74.8753 14.632C75.558 15.24 75.8993 16.088 75.8993 17.176C75.8993 18.0187 75.6806 18.7227 75.2433 19.288C74.8166 19.8427 74.2033 20.2213 73.4033 20.424C73.9686 20.5947 74.4326 21.0053 74.7953 21.656L76.6193 25H73.8833L71.9313 21.4C71.7713 21.112 71.574 20.9147 71.3393 20.808C71.1046 20.6907 70.8273 20.632 70.5073 20.632H69.2913V25H66.8113ZM69.2913 18.84H71.5153C72.8486 18.84 73.5153 18.3067 73.5153 17.24C73.5153 16.184 72.8486 15.656 71.5153 15.656H69.2913V18.84ZM89.1571 25.176C87.9411 25.176 86.9011 24.936 86.0371 24.456C85.1731 23.976 84.5064 23.304 84.0371 22.44C83.5784 21.5653 83.3491 20.536 83.3491 19.352C83.3491 18.1787 83.5784 17.16 84.0371 16.296C84.5064 15.4213 85.1731 14.744 86.0371 14.264C86.9011 13.784 87.9411 13.544 89.1571 13.544C89.9037 13.544 90.6184 13.6613 91.3011 13.896C91.9837 14.1307 92.5437 14.4507 92.9811 14.856L92.2131 16.824C91.7331 16.4507 91.2477 16.1787 90.7571 16.008C90.2771 15.8267 89.7704 15.736 89.2371 15.736C88.1597 15.736 87.3437 16.0507 86.7891 16.68C86.2451 17.2987 85.9731 18.1893 85.9731 19.352C85.9731 20.5147 86.2451 21.4107 86.7891 22.04C87.3437 22.6693 88.1597 22.984 89.2371 22.984C89.7704 22.984 90.2771 22.8987 90.7571 22.728C91.2477 22.5467 91.7331 22.2693 92.2131 21.896L92.9811 23.864C92.5437 24.2587 91.9837 24.5787 91.3011 24.824C90.6184 25.0587 89.9037 25.176 89.1571 25.176ZM100.088 25.176C98.979 25.176 98.003 24.936 97.1603 24.456C96.3283 23.9653 95.6776 23.288 95.2083 22.424C94.7496 21.5493 94.5203 20.5253 94.5203 19.352C94.5203 18.1787 94.7496 17.16 95.2083 16.296C95.6776 15.4213 96.3283 14.744 97.1603 14.264C97.9923 13.784 98.9683 13.544 100.088 13.544C101.208 13.544 102.184 13.784 103.016 14.264C103.859 14.744 104.51 15.4213 104.968 16.296C105.438 17.16 105.672 18.1733 105.672 19.336C105.672 20.5093 105.438 21.5333 104.968 22.408C104.51 23.2827 103.859 23.9653 103.016 24.456C102.184 24.936 101.208 25.176 100.088 25.176ZM100.088 23.064C101.027 23.064 101.758 22.7387 102.28 22.088C102.814 21.4267 103.08 20.5147 103.08 19.352C103.08 18.1787 102.819 17.272 102.296 16.632C101.774 15.9813 101.038 15.656 100.088 15.656C99.1603 15.656 98.4296 15.9813 97.8963 16.632C97.3736 17.272 97.1123 18.1787 97.1123 19.352C97.1123 20.5147 97.3736 21.4267 97.8963 22.088C98.4296 22.7387 99.1603 23.064 100.088 23.064ZM108.231 25V13.72H110.071L115.703 20.904V13.72H118.007V25H116.183L110.535 17.8V25H108.231ZM123.606 25V15.768H119.878V13.72H129.814V15.768H126.086V25H123.606ZM129.105 25L134.289 13.72H136.289L141.473 25H138.977L137.921 22.552H132.657L131.617 25H129.105ZM135.265 16.36L133.489 20.616H137.105L135.297 16.36H135.265ZM153.765 25.176C152.496 25.176 151.419 24.936 150.533 24.456C149.659 23.976 148.992 23.304 148.533 22.44C148.075 21.576 147.845 20.5627 147.845 19.4C147.845 18.2053 148.08 17.1707 148.549 16.296C149.029 15.4213 149.717 14.744 150.613 14.264C151.509 13.784 152.587 13.544 153.845 13.544C154.635 13.544 155.381 13.656 156.085 13.88C156.8 14.104 157.381 14.4027 157.829 14.776L157.029 16.712C156.539 16.3493 156.037 16.0933 155.525 15.944C155.013 15.784 154.459 15.704 153.861 15.704C152.72 15.704 151.861 16.024 151.285 16.664C150.72 17.2933 150.437 18.2053 150.437 19.4C150.437 20.6053 150.725 21.5173 151.301 22.136C151.888 22.7547 152.752 23.064 153.893 23.064C154.501 23.064 155.141 22.968 155.813 22.776V20.568H153.381V18.776H157.861V24.312C157.307 24.5893 156.667 24.8027 155.941 24.952C155.216 25.1013 154.491 25.176 153.765 25.176ZM160.696 25V13.72H165.848C167.107 13.72 168.078 14.024 168.76 14.632C169.443 15.24 169.784 16.088 169.784 17.176C169.784 18.0187 169.566 18.7227 169.128 19.288C168.702 19.8427 168.088 20.2213 167.288 20.424C167.854 20.5947 168.318 21.0053 168.68 21.656L170.504 25H167.768L165.816 21.4C165.656 21.112 165.459 20.9147 165.224 20.808C164.99 20.6907 164.712 20.632 164.392 20.632H163.176V25H160.696ZM163.176 18.84H165.4C166.734 18.84 167.4 18.3067 167.4 17.24C167.4 16.184 166.734 15.656 165.4 15.656H163.176V18.84ZM170.962 25L176.146 13.72H178.146L183.33 25H180.834L179.778 22.552H174.514L173.474 25H170.962ZM177.122 16.36L175.346 20.616H178.962L177.154 16.36H177.122ZM186.367 25V15.768H182.639V13.72H192.575V15.768H188.847V25H186.367ZM199.261 25.176C197.661 25.176 196.439 24.7653 195.597 23.944C194.765 23.1227 194.349 21.9013 194.349 20.28V13.72H196.829V20.296C196.829 21.2133 197.037 21.9067 197.453 22.376C197.869 22.8347 198.471 23.064 199.261 23.064C200.871 23.064 201.677 22.1413 201.677 20.296V13.72H204.125V20.28C204.125 21.9013 203.714 23.1227 202.893 23.944C202.071 24.7653 200.861 25.176 199.261 25.176ZM206.959 25V13.72H209.439V25H206.959ZM215.022 25V15.768H211.294V13.72H221.23V15.768H217.502V25H215.022ZM220.522 25L225.706 13.72H227.706L232.89 25H230.394L229.338 22.552H224.074L223.034 25H220.522ZM226.682 16.36L224.906 20.616H228.522L226.714 16.36H226.682Z" fill="#212429"/>
<path d="M0 40H257L237.135 44H19.8647L0 40Z" fill="#212429"/>
</svg>
