<svg width="20" height="20" viewBox="0 0 20 20" fill="none" xmlns="http://www.w3.org/2000/svg">
<path d="M10 13.75C8.02475 13.75 6.42579 12.2211 6.27866 10.2836L3.54689 8.17243C3.18778 8.62295 2.85731 9.09925 2.59065 9.62008C2.53108 9.73792 2.50004 9.86811 2.50004 10.0002C2.50004 10.1322 2.53108 10.2624 2.59065 10.3802C4.00288 13.1357 6.79871 15 10 15C10.7008 15 11.3768 14.8958 12.0284 14.7276L10.6771 13.682C10.4539 13.7252 10.2273 13.7479 10 13.75ZM18.1724 15.263L15.2935 13.038C16.168 12.301 16.8872 11.3975 17.4094 10.38C17.4689 10.2621 17.5 10.1319 17.5 9.9999C17.5 9.86785 17.4689 9.73766 17.4094 9.61982C15.9971 6.86436 13.2013 5.00004 10 5.00004C8.65925 5.00167 7.34027 5.3392 6.16355 5.98181L2.85054 3.42114C2.80734 3.38752 2.75794 3.36275 2.70516 3.34823C2.65237 3.33371 2.59725 3.32974 2.54293 3.33654C2.48862 3.34333 2.43617 3.36076 2.38859 3.38784C2.34101 3.41491 2.29924 3.45109 2.26565 3.49432L1.75445 4.15239C1.68664 4.23962 1.65625 4.35022 1.66998 4.45986C1.6837 4.5695 1.74041 4.66919 1.82763 4.73702L17.1495 16.5789C17.1927 16.6125 17.2421 16.6373 17.2948 16.6518C17.3476 16.6663 17.4028 16.6703 17.4571 16.6635C17.5114 16.6567 17.5638 16.6393 17.6114 16.6122C17.659 16.5851 17.7008 16.549 17.7344 16.5057L18.2458 15.8477C18.3136 15.7604 18.3439 15.6498 18.3302 15.5401C18.3164 15.4305 18.2596 15.3308 18.1724 15.263ZM13.388 11.5651L12.3646 10.774C12.4508 10.5249 12.4965 10.2636 12.5 10C12.5051 9.61416 12.4196 9.23248 12.2504 8.88564C12.0812 8.5388 11.833 8.23648 11.5258 8.00295C11.2186 7.76943 10.8609 7.61121 10.4814 7.54101C10.102 7.47081 9.71132 7.49058 9.34089 7.59873C9.49792 7.81152 9.58287 8.06891 9.58333 8.33337C9.57945 8.42137 9.566 8.50869 9.54323 8.59378L7.62631 7.11228C8.29219 6.55582 9.13222 6.25068 10 6.25004C10.4925 6.24976 10.9803 6.34657 11.4354 6.53493C11.8905 6.72329 12.304 6.9995 12.6523 7.34777C13.0005 7.69605 13.2767 8.10955 13.4651 8.56464C13.6535 9.01974 13.7503 9.50749 13.75 10C13.75 10.5633 13.6122 11.0883 13.388 11.5654V11.5651Z" fill="#212429"/>
</svg>
