<svg width="20" height="20" viewBox="0 0 20 20" fill="none" xmlns="http://www.w3.org/2000/svg">
<path d="M17.4099 9.6198C15.9976 6.86433 13.2018 5 10.0005 5C6.79918 5 4.00256 6.86563 2.5911 9.62006C2.53153 9.7379 2.50049 9.8681 2.50049 10.0001C2.50049 10.1322 2.53153 10.2624 2.5911 10.3802C4.00334 13.1357 6.79918 15 10.0005 15C13.2018 15 15.9984 13.1344 17.4099 10.38C17.4694 10.2621 17.5005 10.1319 17.5005 9.99988C17.5005 9.86784 17.4694 9.73764 17.4099 9.6198ZM10.0005 13.75C9.25881 13.75 8.53378 13.5301 7.9171 13.118C7.30041 12.706 6.81976 12.1203 6.53593 11.4351C6.2521 10.7499 6.17784 9.99585 6.32254 9.26842C6.46723 8.54099 6.82438 7.8728 7.34883 7.34835C7.87328 6.82391 8.54147 6.46675 9.2689 6.32206C9.99633 6.17736 10.7503 6.25163 11.4356 6.53545C12.1208 6.81928 12.7064 7.29993 13.1185 7.91662C13.5306 8.5333 13.7505 9.25833 13.7505 10C13.7507 10.4925 13.6539 10.9803 13.4655 11.4354C13.2772 11.8904 13.0009 12.3039 12.6527 12.6522C12.3044 13.0005 11.8909 13.2767 11.4358 13.4651C10.9808 13.6534 10.493 13.7503 10.0005 13.75ZM10.0005 7.5C9.77735 7.50312 9.55564 7.53632 9.34137 7.5987C9.51799 7.83872 9.60275 8.13409 9.58027 8.43124C9.55779 8.72839 9.42956 9.00765 9.21885 9.21837C9.00813 9.42909 8.72887 9.55731 8.43172 9.57979C8.13457 9.60227 7.8392 9.51751 7.59918 9.34089C7.46251 9.84443 7.48718 10.3782 7.66972 10.8669C7.85227 11.3557 8.1835 11.775 8.61679 12.0656C9.05008 12.3563 9.56362 12.5038 10.0851 12.4873C10.6066 12.4708 11.1098 12.2912 11.5239 11.9738C11.938 11.6563 12.2421 11.217 12.3934 10.7177C12.5447 10.2184 12.5357 9.68417 12.3675 9.19026C12.1993 8.69635 11.8805 8.26762 11.4559 7.96441C11.0313 7.6612 10.5222 7.49878 10.0005 7.5Z" fill="#212429"/>
</svg>
