<svg width="48" height="48" viewBox="0 0 48 48" fill="none" xmlns="http://www.w3.org/2000/svg">
<circle cx="24" cy="24" r="24" fill="#F1F3F5"/>
<g clip-path="url(#clip0_1618_1714)">
<path d="M14.4 23.2379C13.9253 23.2379 13.4613 23.3787 13.0666 23.6424C12.672 23.9061 12.3643 24.281 12.1827 24.7195C12.001 25.158 11.9535 25.6406 12.0461 26.1062C12.1387 26.5717 12.3673 26.9993 12.7029 27.335C13.0386 27.6706 13.4662 27.8992 13.9318 27.9918C14.3973 28.0844 14.8799 28.0369 15.3184 27.8553C15.757 27.6736 16.1318 27.366 16.3955 26.9713C16.6592 26.5766 16.8 26.1126 16.8 25.6379C16.7994 25.0016 16.5464 24.3915 16.0964 23.9415C15.6464 23.4916 15.0363 23.2385 14.4 23.2379ZM17.7 26.2379H19.5V25.0379H17.7V26.2379ZM28.74 22.2329L29.46 23.1929L31.26 21.8429L30.54 20.8829L28.74 22.2329ZM33.6 16.6379C33.1253 16.6379 32.6613 16.7787 32.2666 17.0424C31.872 17.3061 31.5643 17.681 31.3827 18.1195C31.201 18.558 31.1535 19.0406 31.2461 19.5062C31.3387 19.9717 31.5673 20.3993 31.9029 20.735C32.2386 21.0706 32.6662 21.2992 33.1318 21.3918C33.5973 21.4844 34.0799 21.4369 34.5184 21.2553C34.957 21.0736 35.3318 20.766 35.5955 20.3713C35.8592 19.9766 36 19.5126 36 19.0379C35.9994 18.4016 35.7464 17.7915 35.2964 17.3415C34.8464 16.8916 34.2363 16.6385 33.6 16.6379Z" fill="#19C1CE"/>
<path d="M33.6001 28.638C33.0812 28.6405 32.5771 28.8116 32.1639 29.1255L28.5639 26.9655C28.7154 26.5378 28.7952 26.088 28.8001 25.6342C28.8004 25.0826 28.692 24.5363 28.481 24.0266C28.2701 23.5169 27.9607 23.0538 27.5706 22.6637C27.1806 22.2737 26.7175 21.9643 26.2078 21.7533C25.698 21.5424 25.1518 21.4339 24.6001 21.4342C24.292 21.4358 23.985 21.4723 23.6851 21.543L22.1551 18.2655C22.5276 17.8609 22.7494 17.3405 22.7833 16.7917C22.8172 16.2428 22.6612 15.699 22.3414 15.2517C22.0216 14.8044 21.5575 14.4808 21.0272 14.3353C20.4969 14.1898 19.9327 14.2313 19.4294 14.4529C18.9261 14.6744 18.5144 15.0625 18.2636 15.5518C18.0127 16.0411 17.9379 16.6019 18.0518 17.1398C18.1657 17.6778 18.4613 18.1602 18.889 18.5058C19.3166 18.8515 19.8502 19.0394 20.4001 19.038C20.4414 19.038 20.4789 19.0267 20.5201 19.0267L22.0576 22.3192C21.0564 23.0842 20.4001 24.2805 20.4001 25.638C20.3979 26.4789 20.6489 27.3011 21.1204 27.9974C21.5918 28.6938 22.2619 29.2321 23.0435 29.5424C23.8251 29.8527 24.682 29.9206 25.5027 29.7372C26.3234 29.5538 27.0699 29.1277 27.6451 28.5142L31.2376 30.6705C31.1635 31.1543 31.2394 31.6492 31.4551 32.0885C31.6708 32.5279 32.0159 32.8906 32.4439 33.1279C32.872 33.3652 33.3625 33.4657 33.8494 33.4158C34.3363 33.3658 34.7962 33.168 35.1672 32.8488C35.5382 32.5296 35.8025 32.1044 35.9246 31.6304C36.0467 31.1564 36.0206 30.6564 35.8499 30.1977C35.6792 29.739 35.372 29.3436 34.9698 29.0648C34.5676 28.7859 34.0896 28.637 33.6001 28.638V28.638ZM24.6001 27.438C24.2441 27.438 23.8961 27.3324 23.6001 27.1346C23.3041 26.9369 23.0734 26.6557 22.9371 26.3268C22.8009 25.9979 22.7653 25.636 22.8347 25.2868C22.9042 24.9377 23.0756 24.6169 23.3273 24.3652C23.5791 24.1135 23.8998 23.942 24.249 23.8726C24.5981 23.8031 24.9601 23.8388 25.289 23.975C25.6179 24.1112 25.899 24.342 26.0968 24.638C26.2946 24.934 26.4001 25.282 26.4001 25.638C26.4001 26.1154 26.2105 26.5732 25.8729 26.9108C25.5354 27.2484 25.0775 27.438 24.6001 27.438Z" fill="#19C1CE"/>
</g>
<defs>
<clipPath id="clip0_1618_1714">
<rect width="24" height="24" fill="white" transform="translate(12 12)"/>
</clipPath>
</defs>
</svg>
