<svg width="32" height="32" viewBox="0 0 32 32" fill="none" xmlns="http://www.w3.org/2000/svg">
<path d="M32 14.7204C32 13.4023 31.2806 12.2639 30.2222 11.6458V3.11882C30.2222 2.63075 29.8344 1.33331 28.4444 1.33331C28.0489 1.33331 27.6561 1.46607 27.3344 1.72489L22.6106 5.51957C20.2378 7.42388 17.2589 8.4731 14.2222 8.4731H3.55556C1.59167 8.4731 0 10.0712 0 12.043V17.3978C0 19.3696 1.59167 20.9677 3.55556 20.9677H5.42778C5.35056 21.5523 5.30667 22.1469 5.30667 22.7527C5.30667 24.971 5.82111 27.0672 6.72667 28.9409C7.015 29.5371 7.64444 29.8925 8.30444 29.8925H12.4311C13.8783 29.8925 14.7472 28.228 13.87 27.0722C12.9589 25.8719 12.4172 24.3747 12.4172 22.7527C12.4172 22.133 12.5072 21.5372 12.6622 20.9677H14.2222C17.2589 20.9677 20.2378 22.0169 22.61 23.9212L27.3339 27.7159C27.649 27.9691 28.0404 28.1072 28.4439 28.1075C29.8283 28.1075 30.2217 26.8368 30.2217 26.3226V17.7955C31.2806 17.1769 32 16.0385 32 14.7204ZM26.6667 22.6088L24.8306 21.1339C21.8306 18.7243 18.0622 17.3978 14.2222 17.3978V12.043C18.0622 12.043 21.8306 10.7166 24.8306 8.30687L26.6667 6.83206V22.6088Z" fill="#19C1CE"/>
</svg>
