<svg width="22" height="22" viewBox="0 0 22 22" fill="none" xmlns="http://www.w3.org/2000/svg">
<path d="M5.10873 21.6662H0.685877V7.42337H5.10873V21.6662ZM2.89492 5.48052C1.48064 5.48052 0.333496 4.30909 0.333496 2.8948C0.333496 2.21547 0.60336 1.56396 1.08372 1.0836C1.56408 0.603238 2.21559 0.333374 2.89492 0.333374C3.57426 0.333374 4.22577 0.603238 4.70613 1.0836C5.18649 1.56396 5.45635 2.21547 5.45635 2.8948C5.45635 4.30909 4.30873 5.48052 2.89492 5.48052ZM21.6621 21.6662H17.2487V14.7329C17.2487 13.0805 17.2154 10.9615 14.9492 10.9615C12.6497 10.9615 12.2973 12.7567 12.2973 14.6138V21.6662H7.87921V7.42337H12.1211V9.36623H12.183C12.7735 8.24718 14.2159 7.06623 16.3678 7.06623C20.844 7.06623 21.6668 10.0139 21.6668 13.8424V21.6662H21.6621Z" fill="#212429"/>
</svg>
