<svg width="24" height="21" viewBox="0 0 24 21" fill="none" xmlns="http://www.w3.org/2000/svg">
<path d="M23.1429 16.9167L0.857144 16.9167C0.383732 16.9167 2.9522e-07 17.2897 2.54983e-07 17.75L7.28523e-08 19.8333C3.26151e-08 20.2936 0.383732 20.6667 0.857143 20.6667L23.1429 20.6667C23.6163 20.6667 24 20.2936 24 19.8333L24 17.75C24 17.2897 23.6163 16.9167 23.1429 16.9167ZM23.1429 8.58333L0.857144 8.58333C0.383733 8.58333 1.02374e-06 8.9564 9.83506e-07 9.41666L8.01375e-07 11.5C7.61138e-07 11.9603 0.383733 12.3333 0.857144 12.3333L23.1429 12.3333C23.6163 12.3333 24 11.9603 24 11.5L24 9.41666C24 8.9564 23.6163 8.58333 23.1429 8.58333ZM23.1429 0.249998L0.857145 0.249996C0.383734 0.249996 1.75227e-06 0.62307 1.71203e-06 1.08333L1.5299e-06 3.16666C1.48966e-06 3.62692 0.383733 4 0.857145 4L23.1429 4C23.6163 4 24 3.62692 24 3.16666L24 1.08333C24 0.623072 23.6163 0.249998 23.1429 0.249998Z" fill="#19C1CE"/>
</svg>
