<svg width="40" height="40" viewBox="0 0 40 40" fill="none" xmlns="http://www.w3.org/2000/svg">
<g clip-path="url(#clip0_1592_2906)">
<path d="M16.6456 8.9237C17.9356 7.56343 19.7316 6.71982 21.7179 6.71982C24.3584 6.71982 26.6621 8.20983 27.8889 10.4218C28.955 9.93973 30.135 9.67159 31.3766 9.67159C36.139 9.67159 40 13.6129 40 18.4744C40 23.3366 36.139 27.2779 31.3766 27.2779C30.7954 27.2779 30.2274 27.219 29.6781 27.1066C28.5977 29.0568 26.539 30.3744 24.1761 30.3744C23.1869 30.3744 22.2513 30.1431 21.4182 29.732C20.3231 32.339 17.7715 34.1669 14.7977 34.1669C11.7009 34.1669 9.06154 32.1838 8.04843 29.4027C7.6057 29.4979 7.14701 29.5475 6.67635 29.5475C2.98917 29.5475 0 26.4913 0 22.7207C0 20.194 1.34302 17.9878 3.33846 16.8074C2.92764 15.8508 2.69915 14.795 2.69915 13.6849C2.69915 9.34868 6.17778 5.83354 10.4684 5.83354C12.9875 5.83354 15.2262 7.04561 16.6456 8.9237Z" fill="#00A1E0"/>
<path d="M5.79371 20.5264C5.76864 20.5927 5.80282 20.6066 5.8108 20.6181C5.88602 20.6735 5.96237 20.7132 6.03929 20.7576C6.44727 20.9768 6.83245 21.0408 7.2353 21.0408C8.05581 21.0408 8.56522 20.5991 8.56522 19.8881V19.8742C8.56522 19.2169 7.99029 18.9782 7.45069 18.8058L7.3806 18.7827C6.97376 18.6489 6.62277 18.5336 6.62277 18.2626V18.2481C6.62277 18.0163 6.82789 17.8457 7.14584 17.8457C7.49912 17.8457 7.91849 17.9644 8.18858 18.1155C8.18858 18.1155 8.26778 18.1674 8.29684 18.0896C8.31279 18.0481 8.44955 17.6756 8.46379 17.6352C8.47918 17.5914 8.45183 17.5591 8.42391 17.5418C8.11564 17.3521 7.68943 17.2223 7.24841 17.2223L7.16636 17.2229C6.41536 17.2229 5.89114 17.6819 5.89114 18.3398V18.3537C5.89114 19.0474 6.46949 19.2722 7.01137 19.4291L7.09855 19.4562C7.49342 19.579 7.83359 19.6845 7.83359 19.9659V19.9798C7.83359 20.2369 7.61251 20.4284 7.25582 20.4284C7.11735 20.4284 6.67576 20.4255 6.19884 20.1205C6.14129 20.0864 6.10767 20.0617 6.06322 20.0346C6.03986 20.0196 5.98117 19.9936 5.95553 20.072L5.79371 20.5264Z" fill="white"/>
<path d="M17.8054 20.5264C17.7804 20.5927 17.8145 20.6066 17.8225 20.6181C17.8977 20.6735 17.9741 20.7132 18.051 20.7576C18.459 20.9768 18.8442 21.0408 19.247 21.0408C20.0675 21.0408 20.5769 20.5991 20.5769 19.8881V19.8742C20.5769 19.2169 20.002 18.9782 19.4624 18.8058L19.3923 18.7827C18.9855 18.6489 18.6345 18.5336 18.6345 18.2626V18.2481C18.6345 18.0163 18.8396 17.8457 19.1576 17.8457C19.5108 17.8457 19.9302 17.9644 20.2003 18.1155C20.2003 18.1155 20.2795 18.1674 20.3086 18.0896C20.3245 18.0481 20.4613 17.6756 20.4755 17.6352C20.4909 17.5914 20.4636 17.5591 20.4356 17.5418C20.1274 17.3521 19.7012 17.2223 19.2601 17.2223L19.1781 17.2229C18.4271 17.2229 17.9029 17.6819 17.9029 18.3398V18.3537C17.9029 19.0474 18.4812 19.2722 19.0231 19.4291L19.1103 19.4562C19.5051 19.579 19.8459 19.6845 19.8459 19.9659V19.9798C19.8459 20.2369 19.6242 20.4284 19.2675 20.4284C19.1291 20.4284 18.6875 20.4255 18.2106 20.1205C18.153 20.0864 18.1188 20.0628 18.0755 20.0346C18.0607 20.0247 17.9912 19.9976 17.9672 20.072L17.8054 20.5264Z" fill="white"/>
<path d="M26.0058 19.1338C26.0058 19.5357 25.9318 19.8523 25.7859 20.076C25.6417 20.2975 25.4235 20.4053 25.1192 20.4053C24.8144 20.4053 24.5973 20.298 24.4554 20.076C24.3118 19.8529 24.2389 19.5357 24.2389 19.1338C24.2389 18.7325 24.3118 18.4165 24.4554 18.1951C24.5973 17.9759 24.8144 17.8693 25.1192 17.8693C25.4235 17.8693 25.6417 17.9759 25.7865 18.1951C25.9318 18.4165 26.0058 18.7325 26.0058 19.1338ZM26.6907 18.3888C26.6235 18.1587 26.5187 17.9558 26.3791 17.7868C26.2395 17.6173 26.0628 17.4812 25.8531 17.382C25.644 17.2834 25.3967 17.2332 25.1192 17.2332C24.8412 17.2332 24.5939 17.2834 24.3848 17.382C24.1751 17.4812 23.9984 17.6173 23.8583 17.7868C23.7192 17.9563 23.6144 18.1593 23.5466 18.3888C23.4799 18.6177 23.4463 18.868 23.4463 19.1338C23.4463 19.3996 23.4799 19.6505 23.5466 19.8788C23.6144 20.1083 23.7187 20.3113 23.8588 20.4808C23.9984 20.6503 24.1756 20.7859 24.3848 20.8822C24.5944 20.9785 24.8412 21.0275 25.1192 21.0275C25.3967 21.0275 25.6434 20.9785 25.8531 20.8822C26.0622 20.7859 26.2395 20.6503 26.3791 20.4808C26.5187 20.3119 26.6235 20.1089 26.6907 19.8788C26.758 19.6499 26.7916 19.3991 26.7916 19.1338C26.7916 18.8686 26.758 18.6177 26.6907 18.3888Z" fill="white"/>
<path d="M32.3149 20.298C32.2921 20.2305 32.2277 20.2559 32.2277 20.2559C32.128 20.2945 32.022 20.3303 31.9092 20.3482C31.7946 20.366 31.6687 20.3753 31.5337 20.3753C31.202 20.3753 30.9388 20.2755 30.7502 20.0783C30.561 19.8811 30.455 19.5622 30.4562 19.1309C30.4573 18.7382 30.5508 18.443 30.7188 18.2181C30.8858 17.9943 31.1399 17.8796 31.479 17.8796C31.7616 17.8796 31.977 17.9125 32.2026 17.9845C32.2026 17.9845 32.2567 18.0082 32.2824 17.9367C32.3422 17.7683 32.3866 17.6478 32.4505 17.4627C32.4687 17.4102 32.4243 17.3877 32.4083 17.3814C32.3194 17.3462 32.1097 17.2891 31.9513 17.2649C31.8032 17.2418 31.63 17.2297 31.4374 17.2297C31.1496 17.2297 30.8932 17.2793 30.6738 17.3785C30.455 17.4771 30.2693 17.6132 30.1223 17.7827C29.9753 17.9523 29.8636 18.1552 29.7889 18.3847C29.7149 18.6136 29.6772 18.8651 29.6772 19.1309C29.6772 19.7058 29.8305 20.1706 30.1331 20.5108C30.4362 20.8521 30.8915 21.0257 31.4852 21.0257C31.8362 21.0257 32.1963 20.9536 32.455 20.8504C32.455 20.8504 32.5046 20.8262 32.4829 20.7679L32.3149 20.298Z" fill="white"/>
<path d="M33.5134 18.7488C33.5459 18.5256 33.6068 18.3399 33.7008 18.1952C33.8427 17.9755 34.0593 17.855 34.3635 17.855C34.6678 17.855 34.8689 17.9761 35.0131 18.1952C35.1088 18.3399 35.1504 18.5337 35.1669 18.7488H33.5134ZM35.8194 18.2581C35.7612 18.0361 35.6171 17.8117 35.5225 17.7091C35.3732 17.5465 35.2273 17.4329 35.0826 17.3695C34.8934 17.2876 34.6667 17.2334 34.4182 17.2334C34.1288 17.2334 33.8661 17.2824 33.653 17.3839C33.4393 17.4854 33.2598 17.6238 33.1191 17.7962C32.9783 17.968 32.8724 18.1727 32.8051 18.4051C32.7373 18.6363 32.7031 18.8883 32.7031 19.1541C32.7031 19.4246 32.7385 19.6766 32.8085 19.9032C32.8792 20.1315 32.992 20.3328 33.1447 20.4994C33.2969 20.6672 33.4929 20.7987 33.7276 20.8904C33.9607 20.9815 34.2439 21.0288 34.5692 21.0282C35.2387 21.0259 35.5914 20.8748 35.7367 20.7935C35.7624 20.7791 35.7869 20.7537 35.7561 20.6811L35.6046 20.2515C35.5818 20.1875 35.5174 20.2111 35.5174 20.2111C35.3516 20.2734 35.1157 20.3852 34.5658 20.3841C34.2063 20.3835 33.9396 20.2763 33.7726 20.1085C33.6011 19.9366 33.5174 19.6841 33.5026 19.3277L35.8211 19.33C35.8211 19.33 35.882 19.3289 35.8883 19.2689C35.8906 19.2435 35.9681 18.7868 35.8194 18.2581Z" fill="white"/>
<path d="M14.9455 18.7488C14.9786 18.5256 15.039 18.3399 15.133 18.1952C15.2749 17.9755 15.4914 17.855 15.7957 17.855C16.0999 17.855 16.3011 17.9761 16.4458 18.1952C16.541 18.3399 16.5825 18.5337 16.5991 18.7488H14.9455ZM17.2509 18.2581C17.1928 18.0361 17.0492 17.8117 16.9546 17.7091C16.8053 17.5465 16.6595 17.4329 16.5147 17.3695C16.3256 17.2876 16.0988 17.2334 15.8504 17.2334C15.5615 17.2334 15.2982 17.2824 15.0851 17.3839C14.8714 17.4854 14.6919 17.6238 14.5512 17.7962C14.4105 17.968 14.3045 18.1727 14.2372 18.4051C14.17 18.6363 14.1353 18.8883 14.1353 19.1541C14.1353 19.4246 14.1706 19.6766 14.2407 19.9032C14.3113 20.1315 14.4241 20.3328 14.5768 20.4994C14.729 20.6672 14.925 20.7987 15.1598 20.8904C15.3928 20.9815 15.676 21.0288 16.0014 21.0282C16.6709 21.0259 17.0236 20.8748 17.1689 20.7935C17.1945 20.7791 17.219 20.7537 17.1882 20.6811L17.0372 20.2515C17.0139 20.1875 16.9495 20.2111 16.9495 20.2111C16.7837 20.2734 16.5484 20.3852 15.9974 20.3841C15.6384 20.3835 15.3717 20.2763 15.2048 20.1085C15.0333 19.9366 14.9495 19.6841 14.9347 19.3277L17.2532 19.33C17.2532 19.33 17.3142 19.3289 17.3204 19.2689C17.3227 19.2435 17.4002 18.7868 17.2509 18.2581Z" fill="white"/>
<path d="M9.93391 20.2851C9.84331 20.2118 9.83077 20.1934 9.80001 20.1461C9.75442 20.074 9.73106 19.9714 9.73106 19.8411C9.73106 19.6346 9.7983 19.4864 9.9379 19.3867C9.93619 19.3873 10.1373 19.2108 10.6103 19.2171C10.9425 19.2218 11.2393 19.2714 11.2393 19.2714V20.3381H11.2399C11.2399 20.3381 10.9453 20.4021 10.6137 20.4223C10.1419 20.4511 9.9322 20.2845 9.93391 20.2851ZM10.8564 18.6365C10.7624 18.6296 10.6405 18.6255 10.4946 18.6255C10.2957 18.6255 10.1037 18.6509 9.92365 18.6999C9.74246 18.7489 9.57949 18.8256 9.43932 18.9271C9.29858 19.0292 9.18519 19.1595 9.10314 19.314C9.02109 19.4686 8.97949 19.6508 8.97949 19.8549C8.97949 20.0625 9.01482 20.243 9.08548 20.3906C9.15613 20.5388 9.25812 20.6622 9.38804 20.7573C9.51681 20.8525 9.67579 20.9222 9.8604 20.9643C10.0422 21.0064 10.2484 21.0278 10.4741 21.0278C10.7117 21.0278 10.9487 21.0082 11.1784 20.9684C11.4057 20.9292 11.6849 20.8721 11.7624 20.8542C11.8393 20.8358 11.9248 20.8121 11.9248 20.8121C11.9823 20.7977 11.9778 20.7354 11.9778 20.7354L11.9766 18.5898C11.9766 18.1192 11.8524 17.7704 11.608 17.5541C11.3647 17.3385 11.0063 17.2295 10.543 17.2295C10.3692 17.2295 10.0895 17.2537 9.92194 17.2877C9.92194 17.2877 9.41539 17.3869 9.20684 17.5518C9.20684 17.5518 9.16126 17.5807 9.18633 17.6452L9.35043 18.0916C9.37095 18.1492 9.42622 18.1296 9.42622 18.1296C9.42622 18.1296 9.44388 18.1227 9.46439 18.1106C9.91055 17.8649 10.4747 17.8724 10.4747 17.8724C10.7254 17.8724 10.918 17.9232 11.0479 18.0241C11.1744 18.1221 11.2388 18.2703 11.2388 18.5829V18.682C11.0393 18.6532 10.8564 18.6365 10.8564 18.6365Z" fill="white"/>
<path d="M29.5563 17.4275C29.5739 17.3745 29.5369 17.3491 29.5215 17.3433C29.4822 17.3277 29.285 17.2857 29.1329 17.2758C28.8417 17.258 28.6799 17.3076 28.5352 17.3733C28.3916 17.439 28.2321 17.5451 28.1432 17.6657V17.3802C28.1432 17.3404 28.1152 17.3087 28.0765 17.3087H27.4822C27.4434 17.3087 27.4155 17.3404 27.4155 17.3802V20.8798C27.4155 20.919 27.4474 20.9513 27.4862 20.9513H28.0953C28.134 20.9513 28.1654 20.919 28.1654 20.8798V19.1314C28.1654 18.8968 28.191 18.6626 28.2423 18.5156C28.2925 18.3703 28.3608 18.2538 28.4452 18.1702C28.5301 18.0872 28.6264 18.0289 28.7318 17.9961C28.8395 17.9626 28.9586 17.9517 29.0429 17.9517C29.1642 17.9517 29.2976 17.9834 29.2976 17.9834C29.342 17.9886 29.3671 17.9609 29.3819 17.9199C29.4218 17.8127 29.5346 17.4915 29.5563 17.4275Z" fill="white"/>
<path d="M23.8386 15.8056C23.7645 15.7825 23.6973 15.7669 23.6095 15.7502C23.5206 15.7341 23.4147 15.726 23.2944 15.726C22.8751 15.726 22.5446 15.8459 22.3127 16.0823C22.0819 16.3176 21.9252 16.6757 21.8466 17.1468L21.8181 17.3054H21.2916C21.2916 17.3054 21.2278 17.3031 21.2141 17.3734L21.128 17.8618C21.1218 17.908 21.1417 17.9374 21.2033 17.9374H21.7155L21.1959 20.8736C21.1554 21.11 21.1087 21.3043 21.0568 21.4519C21.0061 21.5972 20.9565 21.7062 20.895 21.7858C20.8357 21.8619 20.7799 21.9184 20.683 21.9513C20.6033 21.9784 20.511 21.9911 20.4101 21.9911C20.3543 21.9911 20.2796 21.9819 20.2243 21.9703C20.1696 21.9594 20.1406 21.9473 20.099 21.9294C20.099 21.9294 20.0392 21.9063 20.0152 21.9669C19.9964 22.017 19.8597 22.397 19.8431 22.4437C19.8272 22.4904 19.85 22.5268 19.879 22.5377C19.9474 22.5619 19.9981 22.5781 20.091 22.6006C20.2198 22.6311 20.3286 22.6329 20.4306 22.6329C20.6437 22.6329 20.8386 22.6023 20.9998 22.5435C21.1617 22.4841 21.303 22.3809 21.4283 22.2413C21.5634 22.0903 21.6483 21.9323 21.7292 21.716C21.8095 21.5027 21.8785 21.2374 21.9332 20.9284L22.4557 17.9374H23.2192C23.2192 17.9374 23.2836 17.9397 23.2967 17.8688L23.3833 17.3809C23.389 17.3342 23.3696 17.3054 23.3075 17.3054H22.5662C22.5702 17.2887 22.6038 17.0246 22.6887 16.776C22.7252 16.6705 22.7936 16.5846 22.8511 16.5258C22.9081 16.4681 22.9736 16.4272 23.0454 16.4035C23.1189 16.3793 23.2027 16.3678 23.2944 16.3678C23.3639 16.3678 23.4329 16.3759 23.4847 16.3868C23.5565 16.4024 23.5845 16.4105 23.6033 16.4162C23.679 16.4393 23.6893 16.4168 23.7041 16.3799L23.8813 15.8874C23.8996 15.8344 23.8545 15.8119 23.8386 15.8056Z" fill="white"/>
<path d="M13.4807 20.88C13.4807 20.9192 13.4528 20.9509 13.4141 20.9509H12.7999C12.7612 20.9509 12.7339 20.9192 12.7339 20.88V15.8725C12.7339 15.8333 12.7612 15.8016 12.7999 15.8016H13.4141C13.4528 15.8016 13.4807 15.8333 13.4807 15.8725V20.88Z" fill="white"/>
</g>
<defs>
<clipPath id="clip0_1592_2906">
<rect width="40" height="40" fill="white"/>
</clipPath>
</defs>
</svg>
