<svg width="1224" height="396" viewBox="0 0 1224 396" fill="none" xmlns="http://www.w3.org/2000/svg">
<rect width="1224" height="396" fill="#0B485B"/>
<path opacity="0.1" d="M1205.43 18.7978L1205.59 19.2232L1413.95 603.67L1412.15 604.771L1203.93 20.7676L757.409 -251.567L758.25 -253.926L1205.43 18.7978Z" fill="url(#paint0_linear_1538_2967)"/>
<path opacity="0.2" d="M1193.16 34.8437L1193.32 35.2691L1401.69 619.707L1399.88 620.816L1191.66 36.8136L745.14 -235.521L745.989 -237.889L1193.16 34.8437Z" fill="url(#paint1_linear_1538_2967)"/>
<path opacity="0.3" d="M1180.89 50.8891L1181.05 51.3146L1389.42 635.752L1387.61 636.861L1179.4 52.8498L732.872 -219.476L733.721 -221.843L1180.89 50.8891Z" fill="url(#paint2_linear_1538_2967)"/>
<path opacity="0.4" d="M1168.63 66.9259L1168.78 67.3606L1377.15 651.798L1375.34 652.908L1167.13 68.8958L720.604 -203.43L721.452 -205.798L1168.63 66.9259Z" fill="url(#paint3_linear_1538_2967)"/>
<path opacity="0.5" d="M1156.37 82.9714L1156.51 83.4061L1364.88 667.843L1363.07 668.953L1154.86 84.9413L708.335 -187.384L709.184 -189.752L1156.37 82.9714Z" fill="url(#paint4_linear_1538_2967)"/>
<path opacity="0.6" d="M1144.1 99.0173L1144.25 99.452L1352.62 683.889L1350.81 684.999L1142.59 100.987L696.067 -171.338L696.915 -173.706L1144.1 99.0173Z" fill="url(#paint5_linear_1538_2967)"/>
<path opacity="0.7" d="M1131.83 115.063L1131.98 115.498L1340.35 699.935L1338.54 701.045L1130.32 117.033L683.799 -155.292L684.647 -157.66L1131.83 115.063Z" fill="url(#paint6_linear_1538_2967)"/>
<path opacity="0.8" d="M1119.56 131.109L1119.72 131.535L1328.09 715.972L1326.28 717.082L1118.05 133.079L671.537 -139.256L672.386 -141.623L1119.56 131.109Z" fill="url(#paint7_linear_1538_2967)"/>
<path opacity="0.9" d="M1107.29 147.155L1107.45 147.581L1315.82 732.018L1314.01 733.128L1105.79 149.125L659.269 -123.21L660.118 -125.577L1107.29 147.155Z" fill="url(#paint8_linear_1538_2967)"/>
<path d="M1095.02 163.2L1095.18 163.626L1303.55 748.063L1301.74 749.173L1093.52 165.161L647.001 -107.165L647.849 -109.532L1095.02 163.2Z" fill="url(#paint9_linear_1538_2967)"/>
<path opacity="0.1" d="M6.3702 392.004L6.21464 391.579L-202.149 -192.867L-200.345 -193.968L7.87633 390.035L454.393 662.369L453.552 664.728L6.3702 392.004Z" fill="url(#paint10_linear_1538_2967)"/>
<path opacity="0.2" d="M18.6386 375.958L18.483 375.533L-189.887 -208.905L-188.077 -210.015L20.1447 373.988L466.661 646.323L465.813 648.691L18.6386 375.958Z" fill="url(#paint11_linear_1538_2967)"/>
<path opacity="0.3" d="M30.9069 359.912L30.7514 359.487L-177.619 -224.951L-175.809 -226.06L32.406 357.952L478.93 630.277L478.081 632.645L30.9069 359.912Z" fill="url(#paint12_linear_1538_2967)"/>
<path opacity="0.4" d="M43.1681 343.876L43.0196 343.442L-165.351 -240.996L-163.54 -242.105L44.6742 341.906L491.198 614.232L490.35 616.599L43.1681 343.876Z" fill="url(#paint13_linear_1538_2967)"/>
<path opacity="0.5" d="M55.4365 327.83L55.288 327.395L-153.082 -257.043L-151.272 -258.152L56.9426 325.86L503.466 598.186L502.618 600.553L55.4365 327.83Z" fill="url(#paint14_linear_1538_2967)"/>
<path opacity="0.6" d="M67.7048 311.784L67.5563 311.35L-140.814 -273.087L-139.004 -274.197L69.211 309.815L515.735 582.14L514.886 584.508L67.7048 311.784Z" fill="url(#paint15_linear_1538_2967)"/>
<path opacity="0.7" d="M79.973 295.739L79.8245 295.304L-128.546 -289.133L-126.735 -290.243L81.4791 293.769L528.003 566.094L527.154 568.462L79.973 295.739Z" fill="url(#paint16_linear_1538_2967)"/>
<path opacity="0.8" d="M92.2414 279.693L92.0858 279.268L-116.284 -305.17L-114.474 -306.279L93.7475 277.724L540.264 550.058L539.416 552.426L92.2414 279.693Z" fill="url(#paint17_linear_1538_2967)"/>
<path opacity="0.9" d="M104.51 263.647L104.354 263.221L-104.016 -321.216L-102.206 -322.326L106.016 261.677L552.532 534.012L551.684 536.379L104.51 263.647Z" fill="url(#paint18_linear_1538_2967)"/>
<path d="M116.778 247.602L116.622 247.176L-91.7478 -337.261L-89.9376 -338.371L118.277 245.641L564.801 517.967L563.952 520.334L116.778 247.602Z" fill="url(#paint19_linear_1538_2967)"/>
<defs>
<linearGradient id="paint0_linear_1538_2967" x1="1472.95" y1="526.499" x2="645.351" y2="-106.269" gradientUnits="userSpaceOnUse">
<stop stop-color="#78EDF2"/>
<stop offset="0.5" stop-color="#19C1CE" stop-opacity="0.4"/>
<stop offset="1" stop-color="#78EDF2" stop-opacity="0"/>
</linearGradient>
<linearGradient id="paint1_linear_1538_2967" x1="1460.68" y1="542.545" x2="633.083" y2="-90.2228" gradientUnits="userSpaceOnUse">
<stop stop-color="#78EDF2"/>
<stop offset="0.5" stop-color="#19C1CE" stop-opacity="0.4"/>
<stop offset="1" stop-color="#78EDF2" stop-opacity="0"/>
</linearGradient>
<linearGradient id="paint2_linear_1538_2967" x1="1448.42" y1="558.59" x2="620.815" y2="-74.178" gradientUnits="userSpaceOnUse">
<stop stop-color="#78EDF2"/>
<stop offset="0.5" stop-color="#19C1CE" stop-opacity="0.4"/>
<stop offset="1" stop-color="#78EDF2" stop-opacity="0"/>
</linearGradient>
<linearGradient id="paint3_linear_1538_2967" x1="1436.15" y1="574.632" x2="608.549" y2="-58.1357" gradientUnits="userSpaceOnUse">
<stop stop-color="#78EDF2"/>
<stop offset="0.5" stop-color="#19C1CE" stop-opacity="0.4"/>
<stop offset="1" stop-color="#78EDF2" stop-opacity="0"/>
</linearGradient>
<linearGradient id="paint4_linear_1538_2967" x1="1423.88" y1="590.677" x2="596.281" y2="-42.0908" gradientUnits="userSpaceOnUse">
<stop stop-color="#78EDF2"/>
<stop offset="0.5" stop-color="#19C1CE" stop-opacity="0.4"/>
<stop offset="1" stop-color="#78EDF2" stop-opacity="0"/>
</linearGradient>
<linearGradient id="paint5_linear_1538_2967" x1="1411.62" y1="606.723" x2="584.013" y2="-26.045" gradientUnits="userSpaceOnUse">
<stop stop-color="#78EDF2"/>
<stop offset="0.5" stop-color="#19C1CE" stop-opacity="0.4"/>
<stop offset="1" stop-color="#78EDF2" stop-opacity="0"/>
</linearGradient>
<linearGradient id="paint6_linear_1538_2967" x1="1399.35" y1="622.769" x2="571.745" y2="-9.99892" gradientUnits="userSpaceOnUse">
<stop stop-color="#78EDF2"/>
<stop offset="0.5" stop-color="#19C1CE" stop-opacity="0.4"/>
<stop offset="1" stop-color="#78EDF2" stop-opacity="0"/>
</linearGradient>
<linearGradient id="paint7_linear_1538_2967" x1="1387.08" y1="638.811" x2="559.48" y2="6.04274" gradientUnits="userSpaceOnUse">
<stop stop-color="#78EDF2"/>
<stop offset="0.5" stop-color="#19C1CE" stop-opacity="0.4"/>
<stop offset="1" stop-color="#78EDF2" stop-opacity="0"/>
</linearGradient>
<linearGradient id="paint8_linear_1538_2967" x1="1374.81" y1="654.857" x2="547.211" y2="22.0886" gradientUnits="userSpaceOnUse">
<stop stop-color="#78EDF2"/>
<stop offset="0.5" stop-color="#19C1CE" stop-opacity="0.4"/>
<stop offset="1" stop-color="#78EDF2" stop-opacity="0"/>
</linearGradient>
<linearGradient id="paint9_linear_1538_2967" x1="1362.55" y1="670.902" x2="534.943" y2="38.1335" gradientUnits="userSpaceOnUse">
<stop stop-color="#78EDF2"/>
<stop offset="0.5" stop-color="#19C1CE" stop-opacity="0.4"/>
<stop offset="1" stop-color="#78EDF2" stop-opacity="0"/>
</linearGradient>
<linearGradient id="paint10_linear_1538_2967" x1="-261.152" y1="-115.697" x2="566.45" y2="517.072" gradientUnits="userSpaceOnUse">
<stop stop-color="#78EDF2"/>
<stop offset="0.5" stop-color="#19C1CE" stop-opacity="0.4"/>
<stop offset="1" stop-color="#78EDF2" stop-opacity="0"/>
</linearGradient>
<linearGradient id="paint11_linear_1538_2967" x1="-248.883" y1="-131.743" x2="578.719" y2="501.025" gradientUnits="userSpaceOnUse">
<stop stop-color="#78EDF2"/>
<stop offset="0.5" stop-color="#19C1CE" stop-opacity="0.4"/>
<stop offset="1" stop-color="#78EDF2" stop-opacity="0"/>
</linearGradient>
<linearGradient id="paint12_linear_1538_2967" x1="-236.615" y1="-147.789" x2="590.988" y2="484.979" gradientUnits="userSpaceOnUse">
<stop stop-color="#78EDF2"/>
<stop offset="0.5" stop-color="#19C1CE" stop-opacity="0.4"/>
<stop offset="1" stop-color="#78EDF2" stop-opacity="0"/>
</linearGradient>
<linearGradient id="paint13_linear_1538_2967" x1="-224.35" y1="-163.83" x2="603.252" y2="468.939" gradientUnits="userSpaceOnUse">
<stop stop-color="#78EDF2"/>
<stop offset="0.5" stop-color="#19C1CE" stop-opacity="0.4"/>
<stop offset="1" stop-color="#78EDF2" stop-opacity="0"/>
</linearGradient>
<linearGradient id="paint14_linear_1538_2967" x1="-212.082" y1="-179.876" x2="615.521" y2="452.892" gradientUnits="userSpaceOnUse">
<stop stop-color="#78EDF2"/>
<stop offset="0.5" stop-color="#19C1CE" stop-opacity="0.4"/>
<stop offset="1" stop-color="#78EDF2" stop-opacity="0"/>
</linearGradient>
<linearGradient id="paint15_linear_1538_2967" x1="-199.814" y1="-195.921" x2="627.789" y2="436.847" gradientUnits="userSpaceOnUse">
<stop stop-color="#78EDF2"/>
<stop offset="0.5" stop-color="#19C1CE" stop-opacity="0.4"/>
<stop offset="1" stop-color="#78EDF2" stop-opacity="0"/>
</linearGradient>
<linearGradient id="paint16_linear_1538_2967" x1="-187.545" y1="-211.967" x2="640.057" y2="420.801" gradientUnits="userSpaceOnUse">
<stop stop-color="#78EDF2"/>
<stop offset="0.5" stop-color="#19C1CE" stop-opacity="0.4"/>
<stop offset="1" stop-color="#78EDF2" stop-opacity="0"/>
</linearGradient>
<linearGradient id="paint17_linear_1538_2967" x1="-175.281" y1="-228.008" x2="652.322" y2="404.76" gradientUnits="userSpaceOnUse">
<stop stop-color="#78EDF2"/>
<stop offset="0.5" stop-color="#19C1CE" stop-opacity="0.4"/>
<stop offset="1" stop-color="#78EDF2" stop-opacity="0"/>
</linearGradient>
<linearGradient id="paint18_linear_1538_2967" x1="-163.012" y1="-244.055" x2="664.59" y2="388.713" gradientUnits="userSpaceOnUse">
<stop stop-color="#78EDF2"/>
<stop offset="0.5" stop-color="#19C1CE" stop-opacity="0.4"/>
<stop offset="1" stop-color="#78EDF2" stop-opacity="0"/>
</linearGradient>
<linearGradient id="paint19_linear_1538_2967" x1="-150.744" y1="-260.1" x2="676.859" y2="372.668" gradientUnits="userSpaceOnUse">
<stop stop-color="#78EDF2"/>
<stop offset="0.5" stop-color="#19C1CE" stop-opacity="0.4"/>
<stop offset="1" stop-color="#78EDF2" stop-opacity="0"/>
</linearGradient>
</defs>
</svg>
