<svg width="32" height="32" viewBox="0 0 32 32" fill="none" xmlns="http://www.w3.org/2000/svg">
<g clip-path="url(#clip0_1547_3265)">
<path d="M3.2 14.9841C2.5671 14.9841 1.94841 15.1718 1.42218 15.5234C0.895939 15.875 0.485787 16.3748 0.243587 16.9595C0.0013865 17.5442 -0.0619842 18.1876 0.0614885 18.8084C0.184961 19.4291 0.489732 19.9993 0.93726 20.4468C1.38479 20.8944 1.95497 21.1991 2.57571 21.3226C3.19645 21.4461 3.83986 21.3827 4.42459 21.1405C5.00931 20.8983 5.50908 20.4881 5.8607 19.9619C6.21233 19.4357 6.4 18.817 6.4 18.1841C6.39921 17.3356 6.06181 16.5222 5.46187 15.9222C4.86192 15.3223 4.04845 14.9849 3.2 14.9841ZM7.6 18.9841H10V17.3841H7.6V18.9841ZM22.32 13.6441L23.28 14.9241L25.68 13.1241L24.72 11.8441L22.32 13.6441ZM28.8 6.18408C28.1671 6.18408 27.5484 6.37176 27.0222 6.72338C26.4959 7.075 26.0858 7.57477 25.8436 8.1595C25.6014 8.74422 25.538 9.38763 25.6615 10.0084C25.785 10.6291 26.0897 11.1993 26.5373 11.6468C26.9848 12.0944 27.555 12.3991 28.1757 12.5226C28.7965 12.6461 29.4399 12.5827 30.0246 12.3405C30.6093 12.0983 31.1091 11.6881 31.4607 11.1619C31.8123 10.6357 32 10.017 32 9.38408C31.9992 8.53563 31.6618 7.72216 31.0619 7.12222C30.4619 6.52227 29.6484 6.18488 28.8 6.18408Z" fill="#19C1CE"/>
<path d="M28.8001 22.184C28.1082 22.1874 27.4361 22.4155 26.8851 22.834L22.0851 19.954C22.2871 19.3837 22.3935 18.784 22.4001 18.179C22.4005 17.4435 22.2559 16.7151 21.9746 16.0355C21.6933 15.3559 21.2809 14.7384 20.7608 14.2183C20.2407 13.6982 19.6232 13.2857 18.9436 13.0045C18.264 12.7232 17.5356 12.5786 16.8001 12.579C16.3893 12.581 15.98 12.6297 15.5801 12.724L13.5401 8.35399C14.0367 7.81459 14.3325 7.12067 14.3777 6.38888C14.4229 5.65709 14.2148 4.93204 13.7884 4.3356C13.362 3.73916 12.7433 3.30769 12.0362 3.11373C11.3291 2.91976 10.5769 2.97512 9.9058 3.2705C9.23474 3.56588 8.68583 4.08327 8.35133 4.7357C8.01682 5.38814 7.91712 6.13584 8.06898 6.85313C8.22084 7.57042 8.61499 8.21356 9.1852 8.67446C9.75541 9.13536 10.4669 9.3859 11.2001 9.38399C11.2551 9.38399 11.3051 9.36899 11.3601 9.36899L13.4101 13.759C12.0751 14.779 11.2001 16.374 11.2001 18.184C11.1972 19.3052 11.5318 20.4014 12.1604 21.3299C12.789 22.2584 13.6825 22.9761 14.7246 23.3899C15.7667 23.8036 16.9093 23.8941 18.0035 23.6496C19.0978 23.4051 20.0932 22.8369 20.8601 22.019L25.6501 24.894C25.5513 25.5391 25.6525 26.1989 25.94 26.7847C26.2276 27.3705 26.6877 27.8542 27.2585 28.1706C27.8292 28.4869 28.4832 28.6209 29.1324 28.5543C29.7816 28.4878 30.3948 28.224 30.8895 27.7984C31.3842 27.3728 31.7366 26.8058 31.8994 26.1739C32.0621 25.5419 32.0273 24.8752 31.7997 24.2636C31.5721 23.652 31.1626 23.1248 30.6263 22.753C30.09 22.3812 29.4527 22.1826 28.8001 22.184ZM16.8001 20.584C16.3254 20.584 15.8614 20.4432 15.4667 20.1795C15.072 19.9158 14.7644 19.541 14.5828 19.1024C14.4011 18.6639 14.3536 18.1813 14.4462 17.7158C14.5388 17.2502 14.7674 16.8226 15.103 16.4869C15.4387 16.1513 15.8663 15.9227 16.3319 15.8301C16.7974 15.7375 17.28 15.785 17.7185 15.9667C18.1571 16.1483 18.5319 16.4559 18.7956 16.8506C19.0593 17.2453 19.2001 17.7093 19.2001 18.184C19.2001 18.8205 18.9472 19.431 18.4971 19.881C18.0471 20.3311 17.4366 20.584 16.8001 20.584Z" fill="#19C1CE"/>
</g>
<defs>
<clipPath id="clip0_1547_3265">
<rect width="32" height="32" fill="white"/>
</clipPath>
</defs>
</svg>
