<svg width="32" height="32" viewBox="0 0 32 32" fill="none" xmlns="http://www.w3.org/2000/svg">
<path d="M25.5331 11.5245C25.5483 11.7377 25.5483 11.9509 25.5483 12.1641C25.5483 18.6666 20.5991 26.1591 11.5533 26.1591C8.7665 26.1591 6.17768 25.3519 4 23.951C4.39595 23.9966 4.77663 24.0119 5.18782 24.0119C7.48728 24.0119 9.60407 23.2352 11.2944 21.9103C9.13199 21.8646 7.31979 20.4484 6.69542 18.4991C7.00001 18.5448 7.30456 18.5753 7.62439 18.5753C8.066 18.5753 8.50766 18.5143 8.9188 18.4078C6.66499 17.9509 4.97458 15.9712 4.97458 13.5803V13.5194C5.62938 13.8849 6.39087 14.1134 7.19792 14.1438C5.87304 13.2605 5.00505 11.7529 5.00505 10.0473C5.00505 9.13362 5.24866 8.29605 5.67508 7.56508C8.09642 10.5499 11.736 12.4991 15.8172 12.7123C15.7411 12.3468 15.6954 11.9661 15.6954 11.5854C15.6954 8.87473 17.8883 6.66663 20.6142 6.66663C22.0304 6.66663 23.3096 7.26053 24.2081 8.21993C25.3198 8.00674 26.3858 7.59555 27.33 7.03211C26.9644 8.17427 26.1878 9.13367 25.1675 9.74276C26.1574 9.63622 27.1168 9.36204 28 8.98137C27.3301 9.95595 26.4924 10.8239 25.5331 11.5245Z" fill="#212429"/>
</svg>
