<svg width="30" height="40" viewBox="0 0 30 40" fill="none" xmlns="http://www.w3.org/2000/svg">
<path d="M29.1468 25.5136C29.3424 21.9487 28.1035 16.1153 25.1041 11.319C25.0389 11.1893 24.8759 11.2541 24.9085 11.3838C25.1041 12.0967 25.1693 13.4255 23.9956 13.3606C21.9417 13.231 24.0608 8.82355 19.5291 5.80963C19.4313 5.74481 19.3335 5.84203 19.3661 5.93926C19.6922 6.5226 19.8552 8.36984 19.1379 8.98559C18.5511 9.47171 17.5078 9.34208 16.4972 7.68928C14.8018 4.93461 15.4539 2.01791 16.595 0.170664C16.6928 0.0410327 16.5624 -0.023783 16.4645 0.00862483C10.2375 2.05032 8.99867 9.34208 7.66198 11.9995C7.43377 12.4532 7.23815 12.6801 6.87953 12.6477C5.73846 12.5829 6.55351 10.1523 6.94474 9.34208C7.00994 9.21245 6.87953 9.14763 6.78172 9.24485C3.58672 12.5505 0.685134 18.2218 0.130898 23.4719C0.1635 23.3423 0.0656938 23.8932 0.0330917 24.3145C0.0330917 24.4765 0.000489649 24.6386 0.000489649 24.8006V25.384C-0.0647145 33.3887 6.3905 39.9027 14.4432 39.9999C22.4959 40.0647 29.049 33.6479 29.1468 25.6432V25.5136ZM14.5084 32.222C10.7918 32.1896 7.79239 29.1757 7.82499 25.4488C7.85759 21.7219 10.8896 18.7728 14.6388 18.8052C18.3881 18.8376 21.3549 21.8515 21.3223 25.5784C21.2897 29.3053 18.2577 32.2544 14.5084 32.222Z" fill="#F04E23"/>
</svg>
